<svg id="Capa_1" enable-background="new 0 0 511.797 511.797" height="512" viewBox="0 0 511.797 511.797" width="512" xmlns="http://www.w3.org/2000/svg"><g><g><path d="m52.751 235.871c-.119-.131-.221-.271-.335-.405-3.778 3.881-7.017 7.346-9.665 10.258-5.191 5.709-5.191 14.438 0 20.147 8.084 8.891 21.566 22.845 39.621 38.499 39.15 33.943 90.992 76.428 173.527 76.428s134.377-42.485 173.527-76.428c18.055-15.653 31.537-29.608 39.621-38.499 5.072-5.578 5.174-14.031.335-19.742-7.755 7.966-408.547-1.368-416.631-10.258z" fill="#a2abb8"/><path d="m429.426 207.225c-39.15-33.943-90.992-76.428-173.527-76.428s-134.377 42.485-173.527 76.428c-12.14 10.525-22.201 20.274-29.956 28.24.114.134.216.274.335.405 8.084 8.891 21.566 22.845 39.621 38.499 39.15 33.943 90.992 76.428 173.527 76.428s134.377-42.485 173.527-76.428c12.14-10.525 22.201-20.274 29.956-28.24-.114-.134-.216-.274-.335-.405-8.084-8.891-21.567-22.845-39.621-38.499z" fill="#c8d2dc"/><path d="m255.899 160.797c-52.467 0-95 42.533-95 95s42.533 95 95 95 95-42.533 95-95-42.533-95-95-95z" fill="#da0b62"/><path d="m295.783 277.627c-11.044 21.011-39.884 73.171-39.884 73.171s19.893 15.743 48.254 2.142c28.361-13.602 34.018-49.642 34.018-49.642s13.202-56.626-42.574-70.418l-.001.001c1.255 7.136 1.977 14.778 1.977 22.917.001 7.726-.651 15.006-1.79 21.829" fill="#f9c8dc"/><path d="m338.171 208.297s-42.439-39.746-82.271 1.661l.001.001c6.807 2.481 13.787 5.677 20.835 9.746 53.533 30.907 61.435 83.591 61.435 83.591s23.581-9.357 25.982-40.719c2.4-31.36-25.982-54.28-25.982-54.28z" fill="#efa5c4"/><path d="m255.899 160.797s-55.64 16.88-39.697 72.079h.001c5.552-4.654 11.81-9.101 18.858-13.171 53.533-30.907 103.11-11.409 103.11-11.409s3.688-25.1-22.272-42.86-60-4.639-60-4.639z" fill="#f9c8dc"/><path d="m173.626 208.297s-13.201 56.626 42.574 70.418l.001-.001c-1.255-7.136-1.977-14.778-1.977-22.917 0-61.814 41.675-95 41.675-95s-19.893-15.743-48.254-2.141-34.019 49.641-34.019 49.641z" fill="#efa5c4"/><path d="m173.626 303.297s42.439 39.746 82.271-1.661l-.001-.001c-6.807-2.481-13.787-5.677-20.835-9.746-53.533-30.907-61.435-83.591-61.435-83.591s-23.581 9.357-25.982 40.719c-2.4 31.361 25.982 54.28 25.982 54.28z" fill="#f9c8dc"/><path d="m255.899 350.797s31.421-25.021 39.697-72.079h-.001c-5.552 4.654-11.81 9.101-18.858 13.171-53.533 30.907-103.11 11.409-103.11 11.409s-3.688 25.1 22.272 42.86c25.96 17.759 60 4.639 60 4.639z" fill="#efa5c4"/><path d="m338.171 303.297s23.581-9.357 25.982-40.719-25.982-54.281-25.982-54.281-28.073-23.54-45.055-5.897c34.292 22.323 51.007 62.297 45.055 100.897z" fill="#de5791"/><path d="m268.99 157.416c-7.882 1.381-42.452 8.622-34.423 28.468 18.246-.535 36.862 3.825 53.831 13.622 1.608.928 3.178 1.896 4.716 2.897 26.576-1.372 45.057 5.895 45.057 5.895s-7.592-50.882-69.181-50.882z" fill="#e592b8"/><path d="m173.626 208.297c17.406-13.978 38.903-21.764 60.941-22.409 10.581-16.524 21.331-25.091 21.331-25.091s-21.378-12.04-48.254-2.141c-29.515 10.87-34.018 49.64-34.018 49.641z" fill="#de5791"/><path d="m349.059 445.755c-4.842 2.488-8.161 7.521-8.161 13.339 0 8.284 6.716 15 15 15 5.818 0 10.851-3.319 13.339-8.161-2.051 1.055-21.232-18.125-20.178-20.178z" fill="#de5791"/><path d="m355.899 444.095c-2.466 0-4.787.606-6.839 1.661-1.055 2.052-1.661 4.373-1.661 6.839 0 8.284 6.716 15 15 15 2.466 0 4.787-.606 6.839-1.661 1.055-2.052 1.661-4.373 1.661-6.839 0-8.285-6.716-15-15-15z" fill="#e592b8"/><path d="m249.059 475.958c-4.842 2.488-8.161 7.521-8.161 13.339 0 8.284 6.716 15 15 15 5.818 0 10.851-3.319 13.339-8.161-2.051 1.055-21.232-18.126-20.178-20.178z" fill="#de5791"/><path d="m255.899 474.297c-2.466 0-4.787.606-6.839 1.661-1.055 2.052-1.661 4.373-1.661 6.839 0 8.284 6.716 15 15 15 2.466 0 4.787-.606 6.839-1.661 1.055-2.052 1.661-4.373 1.661-6.839 0-8.284-6.716-15-15-15z" fill="#e592b8"/><path d="m149.059 445.755c-4.842 2.488-8.161 7.521-8.161 13.339 0 8.284 6.716 15 15 15 5.818 0 10.851-3.319 13.339-8.161-2.051 1.055-21.232-18.125-20.178-20.178z" fill="#de5791"/><path d="m155.899 444.095c-2.466 0-4.787.606-6.839 1.661-1.055 2.052-1.661 4.373-1.661 6.839 0 8.284 6.716 15 15 15 2.466 0 4.787-.606 6.839-1.661 1.055-2.052 1.661-4.373 1.661-6.839 0-8.285-6.716-15-15-15z" fill="#e592b8"/><path d="m149.059 39.161c-4.842 2.488-8.161 7.521-8.161 13.339 0 8.284 6.716 15 15 15 5.818 0 10.851-3.319 13.339-8.161-2.051 1.055-21.232-18.126-20.178-20.178z" fill="#de5791"/><path d="m155.899 37.5c-2.466 0-4.787.606-6.839 1.661-1.055 2.052-1.661 4.373-1.661 6.839 0 8.284 6.716 15 15 15 2.466 0 4.787-.606 6.839-1.661 1.055-2.052 1.661-4.373 1.661-6.839 0-8.284-6.716-15-15-15z" fill="#e592b8"/><path d="m249.059 9.161c-4.842 2.488-8.161 7.521-8.161 13.339 0 8.284 6.716 15 15 15 5.818 0 10.851-3.319 13.339-8.161-2.051 1.055-21.232-18.126-20.178-20.178z" fill="#de5791"/><path d="m255.899 7.5c-2.466 0-4.787.606-6.839 1.661-1.055 2.052-1.661 4.373-1.661 6.839 0 8.284 6.716 15 15 15 2.466 0 4.787-.606 6.839-1.661 1.055-2.052 1.661-4.373 1.661-6.839 0-8.284-6.716-15-15-15z" fill="#e592b8"/><path d="m349.059 39.161c-4.842 2.488-8.161 7.521-8.161 13.339 0 8.284 6.716 15 15 15 5.818 0 10.851-3.319 13.339-8.161-2.051 1.055-21.232-18.126-20.178-20.178z" fill="#de5791"/><path d="m355.899 37.5c-2.466 0-4.787.606-6.839 1.661-1.055 2.052-1.661 4.373-1.661 6.839 0 8.284 6.716 15 15 15 2.466 0 4.787-.606 6.839-1.661 1.055-2.052 1.661-4.373 1.661-6.839 0-8.284-6.716-15-15-15z" fill="#e592b8"/><path d="m380.899 255.797c0 69.036-55.964 125-125 125s-125-55.964-125-125 55.964-125 125-125 125 55.965 125 125zm-125-95c-52.467 0-95 42.533-95 95s42.533 95 95 95 95-42.533 95-95-42.533-95-95-95z" fill="#e9edf1"/></g><g><path d="m255.899 511.797c-12.406 0-22.5-10.093-22.5-22.5 0-9.778 6.27-18.12 15-21.215v-79.899c-16.182-.496-31.144-2.582-45-5.829v28.092c0 4.142-3.357 7.5-7.5 7.5h-32.5v19.934c8.73 3.095 15 11.437 15 21.215 0 12.407-10.094 22.5-22.5 22.5s-22.5-10.093-22.5-22.5c0-9.778 6.27-18.12 15-21.215v-27.434c0-4.142 3.357-7.5 7.5-7.5h32.5v-24.672c-36.894-11.454-65.257-30.911-87.578-48.664-3.241-2.578-3.779-7.296-1.201-10.538 2.579-3.242 7.295-3.779 10.539-1.201 15.546 12.364 34.176 25.604 56.781 36.042-26.729-24.258-43.541-59.261-43.541-98.115 0-38.827 16.788-73.808 43.485-98.064-34.104 15.717-59.783 37.978-79.6 55.159-17.737 15.377-30.989 29.085-38.984 37.877-2.606 2.866-2.606 7.189 0 10.056 7.995 8.792 21.248 22.5 38.984 37.876 3.13 2.713 3.467 7.45.754 10.58-2.714 3.131-7.451 3.466-10.58.754-18.292-15.859-31.988-30.027-40.256-39.119-7.838-8.62-7.838-21.62 0-30.239 8.268-9.093 21.963-23.26 40.256-39.12 20.827-18.057 43.535-36.938 71.908-51.909 10.149-5.355 20.41-9.879 30.841-13.585l-29.612-29.612c-1.406-1.406-2.196-3.314-2.196-5.303v-27.434c-8.73-3.095-15-11.437-15-21.215 0-12.407 10.094-22.5 22.5-22.5s22.5 10.093 22.5 22.5c0 9.778-6.27 18.12-15 21.215v24.328l32.97 32.969c16.781-4.541 34.053-7.057 52.03-7.602v-79.695c-8.73-3.095-15-11.437-15-21.215 0-12.407 10.094-22.5 22.5-22.5s22.5 10.093 22.5 22.5c0 9.778-6.27 18.12-15 21.215v79.695c15.477.469 30.433 2.399 45 5.824v-28.085c0-4.142 3.357-7.5 7.5-7.5h32.5v-19.934c-8.73-3.095-15-11.437-15-21.215 0-12.407 10.094-22.5 22.5-22.5s22.5 10.093 22.5 22.5c0 9.778-6.27 18.12-15 21.215v27.434c0 4.142-3.357 7.5-7.5 7.5h-32.5v24.683c13.265 4.137 26.237 9.566 39.032 16.317 28.373 14.971 51.081 33.853 71.908 51.91 18.292 15.859 31.988 30.026 40.256 39.119 7.838 8.62 7.838 21.62 0 30.239-8.268 9.093-21.963 23.26-40.256 39.12-20.827 18.057-43.535 36.939-71.908 51.909-10.149 5.355-20.41 9.879-30.841 13.585l29.612 29.612c1.406 1.406 2.196 3.314 2.196 5.303v27.434c8.73 3.095 15 11.437 15 21.215 0 12.407-10.094 22.5-22.5 22.5s-22.5-10.093-22.5-22.5c0-9.778 6.27-18.12 15-21.215v-24.328l-32.97-32.969c-16.781 4.541-34.053 7.057-52.03 7.602v79.898c8.73 3.095 15 11.437 15 21.215.001 12.406-10.093 22.499-22.499 22.499zm0-30c-4.136 0-7.5 3.364-7.5 7.5 0 4.135 3.364 7.5 7.5 7.5s7.5-3.365 7.5-7.5-3.365-7.5-7.5-7.5zm100-30.202c-4.136 0-7.5 3.364-7.5 7.5s3.364 7.5 7.5 7.5 7.5-3.364 7.5-7.5-3.365-7.5-7.5-7.5zm-200 0c-4.136 0-7.5 3.364-7.5 7.5s3.364 7.5 7.5 7.5 7.5-3.364 7.5-7.5-3.365-7.5-7.5-7.5zm100-78.298c64.79 0 117.5-52.71 117.5-117.5 0-24.719-7.586-48.366-21.939-68.385-2.413-3.366-1.641-8.052 1.726-10.465 3.364-2.413 8.051-1.642 10.466 1.725 16.19 22.583 24.748 49.252 24.748 77.125 0 38.827-16.788 73.808-43.485 98.064 34.104-15.717 59.783-37.978 79.6-55.159 17.737-15.377 30.989-29.085 38.984-37.877 2.606-2.866 2.606-7.189 0-10.056-7.995-8.792-21.248-22.5-38.984-37.876-34.262-29.705-86.039-74.595-168.614-74.595-64.79 0-117.5 52.71-117.5 117.5s52.708 117.499 117.498 117.499zm100-328.297c-4.136 0-7.5 3.365-7.5 7.5 0 4.136 3.364 7.5 7.5 7.5s7.5-3.364 7.5-7.5c0-4.135-3.365-7.5-7.5-7.5zm-200 0c-4.136 0-7.5 3.365-7.5 7.5 0 4.136 3.364 7.5 7.5 7.5s7.5-3.364 7.5-7.5c0-4.135-3.365-7.5-7.5-7.5zm100-30c-4.136 0-7.5 3.365-7.5 7.5 0 4.136 3.364 7.5 7.5 7.5s7.5-3.364 7.5-7.5c0-4.135-3.365-7.5-7.5-7.5zm-102.5 240.797c0-56.508 45.965-102.483 102.469-102.5h.057c-.019 0-.077 0-.057 0 56.504.017 102.469 45.992 102.469 102.5s-45.965 102.483-102.469 102.5h.057c-.019 0-.036 0-.057 0-56.504-.016-102.469-45.991-102.469-102.5zm38.47 59.578c15.382 16.521 37.058 27.101 61.174 27.877 8.806-8.261 22.249-23.716 30.257-46.648-35.163 21.574-68.658 22.332-91.431 18.771zm113.07-62.905c1.104 41.292-15.025 70.696-29.512 88.631 23.029-5.27 42.625-19.65 54.774-39.134-2.755-11.76-9.42-31.112-25.262-49.497zm-126.188 44.587c11.57 3.497 31.698 7.409 55.576 2.862-21.563-11.769-39.122-28.169-51.417-48.18-2.168-3.529-1.064-8.148 2.465-10.316 3.527-2.168 8.148-1.064 10.316 2.464 3.3 5.372 7.035 10.455 11.172 15.222-1.088-41.295 15.051-70.702 29.513-88.616-38.882 8.894-67.978 43.765-67.978 85.305.001 14.909 3.75 28.96 10.353 41.259zm44.432-22.396c9.658 7.631 20.66 14.002 32.784 18.936 10.611-4.222 21.621-10.331 32.701-18.957 1.648-11.301 1.864-23.891-.066-37.8-8.962-7.078-19.759-13.56-32.77-18.843-10.608 4.222-21.618 10.33-32.695 18.952-1.647 11.275-1.867 23.841.046 37.712zm54.353-62.997c36.31 19.689 53.711 48.359 62.001 69.871 2.509-8.14 3.861-16.785 3.861-25.737 0-14.91-3.749-28.96-10.353-41.259-11.56-3.495-31.657-7.405-55.509-2.875zm-18.781-43.321c-8.773 8.233-22.229 23.688-30.247 46.642 35.16-21.568 68.649-22.325 91.42-18.765-15.38-16.519-37.062-27.098-61.173-27.877z"/></g></g></svg>