<?xml version="1.0" encoding="iso-8859-1"?>
<!-- Generator: Adobe Illustrator 19.0.0, SVG Export Plug-In . SVG Version: 6.00 Build 0)  -->
<svg version="1.1" id="Layer_1" xmlns="http://www.w3.org/2000/svg" xmlns:xlink="http://www.w3.org/1999/xlink" x="0px" y="0px"
	 viewBox="0 0 512 512" style="enable-background:new 0 0 512 512;" xml:space="preserve">
<path style="fill:#FFFFFF;" d="M471.166,215.166c0,52.32-18.951,102.609-53.399,141.852v100.013
	c0,12.994-10.565,23.558-23.558,23.558c-12.994,0-23.558-10.565-23.558-23.558v-59.754c-34.28,21.674-73.586,33.055-114.65,33.055
	c-27.401,0-53.933-5.036-79.051-14.994v73.104c0,12.994-10.565,23.558-23.558,23.558c-12.994,0-23.558-10.565-23.558-23.558v-98.997
	c-6.607-4.785-12.889-9.915-18.847-15.35v61.995c0,12.994-10.565,23.558-23.558,23.558s-23.558-10.565-23.558-23.558V311.912
	c-14.92-29.61-23.035-62.665-23.035-96.746C40.834,96.526,137.36,0,256,0S471.166,96.526,471.166,215.166z"/>
<path style="fill:#D8D7DA;" d="M110.986,374.105v61.984c0,12.994-10.565,23.558-23.558,23.558s-23.558-10.565-23.558-23.558V311.954
	C75.575,335.198,91.49,356.306,110.986,374.105z"/>
<circle style="fill:#D80027;" cx="256" cy="215.166" r="121.822"/>
<circle style="fill:#FFFFFF;" cx="256" cy="215.166" r="41.358"/>
<path d="M95.28,436.09c0,4.331-3.522,7.853-7.853,7.853s-7.853-3.522-7.853-7.853v-18.847H63.869v18.847
	c0,12.991,10.569,23.558,23.558,23.558s23.558-10.568,23.558-23.558v-38.74H95.28V436.09z"/>
<path d="M370.65,397.276v9.497h15.706V296.834H370.65v81.561c-33.67,23.716-73.193,36.231-114.65,36.231
	c-27.514,0-54.081-5.478-79.051-16.28v-70.1h-15.706v109.939h15.706v-22.841c25.117,9.948,51.652,14.988,79.051,14.988
	C297.063,430.331,336.371,418.948,370.65,397.276z"/>
<path d="M373.613,182.717l-15.141,4.169c2.522,9.16,3.802,18.675,3.802,28.279h15.706c0-2.909-0.109-5.81-0.314-8.7l31.343-16.455
	l10.874,18.641l13.566-7.913l-14.799-25.37l-3.361-35.86l-21.961-14.64l-8.711,13.067l15.733,10.489l2.537,27.06l-27.533,14.454
	C374.845,187.516,374.271,185.104,373.613,182.717z"/>
<g>
	<path style="fill:#FFFFFF;" d="M173.914,184.121c-3.474,9.201-5.367,18.873-5.625,28.746l15.699,0.41
		c0.213-8.112,1.765-16.054,4.618-23.607L173.914,184.121z"/>
	<path style="fill:#FFFFFF;" d="M223.802,296.807l5.755-14.613c-9.196-3.621-17.436-9.035-24.493-16.091
		c-10.348-10.347-17.223-23.388-19.882-37.712l-15.442,2.867c3.243,17.459,11.617,33.349,24.219,45.951
		C202.547,285.798,212.589,292.392,223.802,296.807z"/>
</g>
<path d="M471.166,215.166C471.166,96.523,374.644,0,256,0S40.834,96.523,40.834,215.166c0,34.08,8.117,67.135,23.035,96.749v94.858
	h15.706v-68.515c4.828,6.924,10.068,13.578,15.706,19.92v27.654h15.706V374.09c5.953,5.439,12.242,10.568,18.847,15.358v69.677
	h15.706V312.54h-15.706v57.091c-20.903-17.099-37.912-38.068-50.258-61.489v-0.837H79.13c-14.628-28.073-22.59-59.608-22.59-92.139
	c0-109.983,89.477-199.46,199.46-199.46s199.46,89.477,199.46,199.46c0,42.146-13.27,82.863-37.693,116.685v-50.721h-15.706v146.585
	h15.706v-70.693C452.211,317.771,471.166,267.487,471.166,215.166z"/>
<path d="M161.243,488.442c0,4.331-3.522,7.853-7.853,7.853s-7.853-3.522-7.853-7.853v-18.847h-15.706v18.847
	c0,12.991,10.569,23.558,23.558,23.558s23.558-10.568,23.558-23.558v-38.74h-15.706V488.442z"/>
<path d="M402.061,457.031c0,4.331-3.522,7.853-7.853,7.853c-4.331,0-7.853-3.522-7.853-7.853v-38.74H370.65v38.74
	c0,12.991,10.569,23.558,23.558,23.558c12.99,0,23.558-10.568,23.558-23.558v-18.847h-15.706V457.031z"/>
<path d="M297.358,215.166c0-22.804-18.553-41.358-41.358-41.358s-41.358,18.553-41.358,41.358s18.553,41.358,41.358,41.358
	S297.358,237.97,297.358,215.166z M230.348,215.166c0-14.144,11.507-25.652,25.652-25.652s25.652,11.508,25.652,25.652
	S270.145,240.818,256,240.818C241.855,240.818,230.348,229.31,230.348,215.166z"/>
<path d="M134.649,227.422c2.063,20.72,9.331,40.443,21.366,57.63c14.06,20.08,33.543,35.312,56.342,44.051l5.622-14.666
	c-19.865-7.613-36.843-20.889-49.099-38.393c-12.531-17.895-19.153-38.947-19.153-60.879c0-58.599,47.675-106.274,106.274-106.274
	c40.381,0,76.768,22.417,94.96,58.504l14.025-7.07c-18.327-36.354-52.749-60.614-92.236-66l16.293-19.784l25.085,8.027L337.3,64.274
	l-9.732-12.327l-16.613,13.116l-16.738-5.357V31.935h-15.706v30.689l-25.198,30.597c-62.621,1.36-113.761,50.144-118.867,111.79
	l-10.897-10.896v-23.035l-18.005-18.006l-11.106,11.105l13.405,13.405v23.035L134.649,227.422z"/>
<path d="M277.464,398.397v-29.696l16.732-5.624l6.293-34.307c9.085-3.562,17.769-8.22,25.88-13.957
	c20.191-14.283,35.403-34.035,43.991-57.122l0,0c1.36-3.655,2.556-7.422,3.557-11.197l-15.182-4.024
	c-0.87,3.286-1.912,6.564-3.095,9.744l7.36,2.739l-7.36-2.738C340.237,293.621,300.195,321.44,256,321.44v15.706
	c9.374,0,18.603-1.061,27.559-3.125l-3.139,17.118l-46.815,15.733l5.004,14.888l23.15-7.781v24.419H277.464z"/>
<g>
</g>
<g>
</g>
<g>
</g>
<g>
</g>
<g>
</g>
<g>
</g>
<g>
</g>
<g>
</g>
<g>
</g>
<g>
</g>
<g>
</g>
<g>
</g>
<g>
</g>
<g>
</g>
<g>
</g>
</svg>
